<svg width="30" height="30" viewBox="0 0 30 30" fill="none" xmlns="http://www.w3.org/2000/svg">
<path fill-rule="evenodd" clip-rule="evenodd" d="M9.375 6.5625C9.375 4.49143 11.0539 2.8125 13.125 2.8125H16.875C18.9461 2.8125 20.625 4.49143 20.625 6.5625V6.81872C21.7906 6.92542 22.9467 7.06495 24.0926 7.2364C25.9101 7.50835 27.1875 9.08954 27.1875 10.8821V14.6736C27.1875 16.1875 26.2704 17.6141 24.7672 18.1139C21.6957 19.135 18.4115 19.6875 15 19.6875C11.5886 19.6875 8.30428 19.135 5.23283 18.1138C3.72955 17.614 2.8125 16.1875 2.8125 14.6736V10.8821C2.8125 9.08954 4.08988 7.50835 5.90745 7.2364C7.05325 7.06496 8.20942 6.92542 9.375 6.81872V6.5625ZM18.75 6.5625V6.67603C17.5096 6.60071 16.2592 6.5625 15 6.5625C13.7408 6.5625 12.4904 6.60071 11.25 6.67603V6.5625C11.25 5.52697 12.0895 4.6875 13.125 4.6875H16.875C17.9105 4.6875 18.75 5.52697 18.75 6.5625ZM15 16.875C15.5178 16.875 15.9375 16.4553 15.9375 15.9375C15.9375 15.4197 15.5178 15 15 15C14.4822 15 14.0625 15.4197 14.0625 15.9375C14.0625 16.4553 14.4822 16.875 15 16.875Z" fill="white"/>
<path d="M3.75 22.9999V19.5049C4.0288 19.6578 4.32621 19.7883 4.64129 19.8931C7.90109 20.9769 11.385 21.5625 15 21.5625C18.615 21.5625 22.0989 20.9769 25.3587 19.8931C25.6738 19.7883 25.9712 19.6578 26.25 19.5049V22.9999C26.25 24.8149 24.9409 26.4094 23.0961 26.6543C20.4469 27.006 17.7444 27.1875 15 27.1875C12.2556 27.1875 9.55308 27.006 6.90392 26.6543C5.05905 26.4094 3.75 24.8148 3.75 22.9999Z" fill="white"/>
</svg>
