<svg width="30" height="30" viewBox="0 0 30 30" fill="none" xmlns="http://www.w3.org/2000/svg">
<path fill-rule="evenodd" clip-rule="evenodd" d="M15 2.8125C8.26903 2.8125 2.8125 8.26903 2.8125 15C2.8125 21.731 8.26903 27.1875 15 27.1875C21.731 27.1875 27.1875 21.731 27.1875 15C27.1875 8.26903 21.731 2.8125 15 2.8125ZM7.82746 7.59038C5.89116 9.4651 4.6875 12.092 4.6875 15C4.6875 20.6954 9.30456 25.3125 15 25.3125C20.6954 25.3125 25.3125 20.6954 25.3125 15C25.3125 11.5558 23.624 8.5059 21.0296 6.633C20.6078 7.30682 20.0468 7.88539 19.382 8.32861L17.8124 9.375L18.0181 9.78648C18.3543 10.4589 17.8654 11.25 17.1136 11.25C16.9566 11.25 16.8018 11.2134 16.6614 11.1432L15.9065 10.7658C15.3651 10.4951 14.7112 10.6012 14.2832 11.0292L14.1193 11.1931C13.5701 11.7423 13.5701 12.6327 14.1193 13.1819L14.4882 13.5508C14.8093 13.8719 15.2658 14.0182 15.7137 13.9435L17.1763 13.6998C17.5802 13.6325 17.9933 13.7445 18.3078 14.0066L19.9694 15.3913C20.3702 15.7253 20.5445 16.2591 20.418 16.7653C19.9399 18.6774 18.9512 20.4237 17.5575 21.8174L16.6541 22.7208C16.2261 23.1488 15.5722 23.2549 15.0308 22.9842L14.8398 22.8887C14.3633 22.6505 14.0624 22.1635 14.0624 21.6309V20.27C14.0624 19.897 13.9142 19.5393 13.6505 19.2756L11.9666 17.5917C11.5386 17.1637 11.4325 16.5098 11.7032 15.9684L12.1874 15L10.1369 12.9495C9.03159 11.8442 8.29925 10.4211 8.04227 8.87921L7.82746 7.59038Z" fill="white"/>
</svg>
