<svg width="40" height="41" viewBox="0 0 40 41" fill="none" xmlns="http://www.w3.org/2000/svg">
<path fill-rule="evenodd" clip-rule="evenodd" d="M9.375 3C7.64911 3 6.25 4.39911 6.25 6.125V34.875C6.25 36.6009 7.64911 38 9.375 38H30.625C32.3509 38 33.75 36.6009 33.75 34.875V21.75C33.75 18.2982 30.9518 15.5 27.5 15.5H24.375C22.6491 15.5 21.25 14.1009 21.25 12.375V9.25C21.25 5.79822 18.4518 3 15 3H9.375ZM12.5 25.5C12.5 24.8096 13.0596 24.25 13.75 24.25H26.25C26.9404 24.25 27.5 24.8096 27.5 25.5C27.5 26.1904 26.9404 26.75 26.25 26.75H13.75C13.0596 26.75 12.5 26.1904 12.5 25.5ZM13.75 29.25C13.0596 29.25 12.5 29.8096 12.5 30.5C12.5 31.1904 13.0596 31.75 13.75 31.75H20C20.6904 31.75 21.25 31.1904 21.25 30.5C21.25 29.8096 20.6904 29.25 20 29.25H13.75Z" fill="#969696"/>
<path d="M21.6187 3.52651C22.9466 5.0608 23.75 7.06158 23.75 9.25V12.375C23.75 12.7202 24.0298 13 24.375 13H27.5C29.6884 13 31.6892 13.8034 33.2235 15.1313C31.7437 9.46646 27.2835 5.00629 21.6187 3.52651Z" fill="#969696"/>
</svg>
