<svg width="46" height="45" viewBox="0 0 46 45" fill="none" xmlns="http://www.w3.org/2000/svg">
<path fill-rule="evenodd" clip-rule="evenodd" d="M23.0155 4.0625C12.6387 4.0625 4.25 12.513 4.25 22.9674C4.25 31.3242 9.62491 38.3981 17.0813 40.9017C18.0136 41.09 18.3551 40.495 18.3551 39.9945C18.3551 39.5562 18.3243 38.0539 18.3243 36.4886C13.1042 37.6156 12.0172 34.2351 12.0172 34.2351C11.1783 32.0441 9.93527 31.481 9.93527 31.481C8.22673 30.3228 10.0597 30.3228 10.0597 30.3228C11.9549 30.4481 12.9494 32.2634 12.9494 32.2634C14.6268 35.1427 17.3299 34.3292 18.4173 33.8283C18.5725 32.6076 19.0699 31.7625 19.5981 31.2931C15.4346 30.8548 11.0542 29.2274 11.0542 21.9657C11.0542 19.8999 11.7994 18.2098 12.9801 16.8954C12.7939 16.426 12.1412 14.4851 13.1668 11.8873C13.1668 11.8873 14.7513 11.3864 18.3239 13.8278C19.8535 13.414 21.4309 13.2035 23.0155 13.2017C24.6 13.2017 26.2152 13.4211 27.7067 13.8278C31.2797 11.3864 32.8642 11.8873 32.8642 11.8873C33.8898 14.4851 33.2368 16.426 33.0505 16.8954C34.2624 18.2098 34.9768 19.8999 34.9768 21.9657C34.9768 29.2274 30.5964 30.8233 26.4019 31.2931C27.0856 31.8877 27.6756 33.0143 27.6756 34.7985C27.6756 37.3337 27.6449 39.3684 27.6449 39.9941C27.6449 40.495 27.9867 41.09 28.9186 40.9021C36.375 38.3977 41.7499 31.3242 41.7499 22.9674C41.7806 12.513 33.3612 4.0625 23.0155 4.0625Z" fill="#969696"/>
</svg>
