<svg width="40" height="41" viewBox="0 0 40 41" fill="none" xmlns="http://www.w3.org/2000/svg">
<path fill-rule="evenodd" clip-rule="evenodd" d="M33.1694 7.33058C30.7286 4.88981 26.7714 4.88981 24.3306 7.33058L16.8306 14.8306C14.3898 17.2714 14.3898 21.2286 16.8306 23.6694C17.3487 24.1875 17.933 24.5942 18.555 24.8914C19.178 25.189 19.4417 25.9352 19.1441 26.5581C18.8466 27.181 18.1004 27.4448 17.4774 27.1472C16.6028 26.7294 15.7844 26.1588 15.0628 25.4372C11.6457 22.0201 11.6457 16.4799 15.0628 13.0628L22.5628 5.56282C25.9799 2.14573 31.5201 2.14573 34.9372 5.56282C38.3543 8.9799 38.3543 14.5201 34.9372 17.9372L32.0089 20.8655C31.5207 21.3536 30.7293 21.3536 30.2411 20.8655C29.753 20.3773 29.753 19.5859 30.2411 19.0977L33.1694 16.1694C35.6102 13.7286 35.6102 9.77136 33.1694 7.33058ZM20.8559 14.4419C21.1534 13.819 21.8997 13.5552 22.5226 13.8528C23.3972 14.2706 24.2156 14.8412 24.9372 15.5628C28.3543 18.9799 28.3543 24.5201 24.9372 27.9372L17.4372 35.4372C14.0201 38.8543 8.4799 38.8543 5.06282 35.4372C1.64573 32.0201 1.64573 26.4799 5.06282 23.0628L7.9911 20.1345C8.47926 19.6464 9.27071 19.6464 9.75887 20.1345C10.247 20.6227 10.247 21.4141 9.75887 21.9023L6.83058 24.8306C4.38981 27.2714 4.38981 31.2286 6.83058 33.6694C9.27136 36.1102 13.2286 36.1102 15.6694 33.6694L23.1694 26.1694C25.6102 23.7286 25.6102 19.7714 23.1694 17.3306C22.6513 16.8125 22.067 16.4058 21.445 16.1086C20.822 15.811 20.5583 15.0648 20.8559 14.4419Z" fill="#969696"/>
</svg>
