<svg width="40" height="41" viewBox="0 0 40 41" fill="none" xmlns="http://www.w3.org/2000/svg">
<path fill-rule="evenodd" clip-rule="evenodd" d="M6.875 5.5C5.14911 5.5 3.75 6.89911 3.75 8.625V30.5C3.75 33.2614 5.98858 35.5 8.75 35.5H33.75C30.9886 35.5 28.75 33.2614 28.75 30.5V8.625C28.75 6.89911 27.3509 5.5 25.625 5.5H6.875ZM20 16.75C19.3096 16.75 18.75 17.3096 18.75 18C18.75 18.6904 19.3096 19.25 20 19.25H22.5C23.1904 19.25 23.75 18.6904 23.75 18C23.75 17.3096 23.1904 16.75 22.5 16.75H20ZM18.75 13C18.75 12.3096 19.3096 11.75 20 11.75H22.5C23.1904 11.75 23.75 12.3096 23.75 13C23.75 13.6904 23.1904 14.25 22.5 14.25H20C19.3096 14.25 18.75 13.6904 18.75 13ZM10 21.75C9.30964 21.75 8.75 22.3096 8.75 23C8.75 23.6904 9.30964 24.25 10 24.25H22.5C23.1904 24.25 23.75 23.6904 23.75 23C23.75 22.3096 23.1904 21.75 22.5 21.75H10ZM8.75 28C8.75 27.3096 9.30964 26.75 10 26.75H22.5C23.1904 26.75 23.75 27.3096 23.75 28C23.75 28.6904 23.1904 29.25 22.5 29.25H10C9.30964 29.25 8.75 28.6904 8.75 28ZM10 11.75C9.30964 11.75 8.75 12.3096 8.75 13V18C8.75 18.6904 9.30964 19.25 10 19.25H15C15.6904 19.25 16.25 18.6904 16.25 18V13C16.25 12.3096 15.6904 11.75 15 11.75H10Z" fill="#969696"/>
<path d="M31.25 11.75H34.375C35.4105 11.75 36.25 12.5895 36.25 13.625V30.5C36.25 31.8807 35.1307 33 33.75 33C32.3693 33 31.25 31.8807 31.25 30.5V11.75Z" fill="#969696"/>
</svg>
