<svg width="101" height="100" viewBox="0 0 101 100" fill="none" xmlns="http://www.w3.org/2000/svg">
<path d="M88.1583 20.4167L56.5875 1.675C54.7042 0.558333 52.6042 0 50.5 0C48.3958 0 46.2958 0.558333 44.4083 1.67917L12.8375 20.4167C9.07083 22.6542 6.75 26.7875 6.75 31.2625V68.7417C6.75 73.2125 9.07083 77.35 12.8417 79.5875L44.4125 98.325C46.2958 99.4417 48.3958 100 50.5 100C52.6042 100 54.7042 99.4417 56.5875 98.325L88.1583 79.5875C91.925 77.35 94.25 73.2167 94.25 68.7417V31.2625C94.25 26.7875 91.9292 22.6542 88.1583 20.4167ZM63.7083 78.9417L63.7625 81.6333C63.7667 81.9583 63.5542 82.3292 63.3 82.4583L61.7042 83.375C61.45 83.5042 61.2417 83.3458 61.2375 83.0208L61.2083 80.375C59.8417 80.9417 58.4583 81.0792 57.575 80.725C57.4083 80.6583 57.3375 80.4125 57.4042 80.1333L57.9833 77.7C58.0292 77.5083 58.1333 77.3167 58.2708 77.1958C58.3208 77.15 58.3708 77.1125 58.4208 77.0875C58.5125 77.0417 58.6 77.0292 58.6792 77.0625C59.6333 77.3833 60.85 77.2333 62.0208 76.6417C63.5083 75.8875 64.5042 74.3708 64.4875 72.8625C64.475 71.4958 63.7333 70.925 61.9333 70.9125C59.6417 70.9167 57.5 70.4667 57.4667 67.0917C57.4375 64.3125 58.8833 61.4208 61.1708 59.5917L61.1417 56.875C61.1375 56.5417 61.3417 56.175 61.6042 56.0417L63.1458 55.0583C63.4 54.9292 63.6083 55.0875 63.6125 55.4208L63.6375 58.1417C64.775 57.6875 65.7667 57.5667 66.6625 57.775C66.8583 57.825 66.9417 58.0917 66.8625 58.4042L66.2625 60.8125C66.2167 60.9958 66.1125 61.1792 65.9917 61.2958C65.9417 61.3458 65.8875 61.3833 65.8333 61.4125C65.7542 61.4542 65.675 61.4667 65.5958 61.45C65.1875 61.3583 64.2125 61.1458 62.6833 61.9208C61.0792 62.7333 60.5167 64.1292 60.5292 65.1625C60.5417 66.4 61.175 66.775 63.3667 66.8125C66.2833 66.8625 67.5458 68.1375 67.575 71.075C67.6042 73.9458 66.0667 77.0458 63.7083 78.9417ZM80.2625 74.4125C80.2625 74.6625 80.2292 74.8958 80.0208 75.0167L72.0375 79.8667C71.8292 79.9875 71.6625 79.8833 71.6625 79.6333V77.575C71.6625 77.325 71.8167 77.1875 72.025 77.0667L79.8875 72.3625C80.0958 72.2417 80.2625 72.3458 80.2625 72.5958V74.4125ZM85.7458 28.3208L55.8792 46.7667C52.1542 48.9458 49.4083 51.3875 49.4083 55.8792V92.6833C49.4083 95.3708 50.4917 97.1125 52.1583 97.6167C51.6125 97.7125 51.0583 97.7792 50.5 97.7792C48.75 97.7792 47.0292 97.3042 45.5125 96.4042L13.9417 77.6667C10.8542 75.8333 8.9375 72.4125 8.9375 68.7417V31.2625C8.9375 27.5917 10.8542 24.1708 13.9417 22.3375L45.5125 3.59583C47.025 2.69583 48.75 2.22083 50.5 2.22083C52.2458 2.22083 53.9708 2.69583 55.4875 3.59583L87.0583 22.3375C89.6583 23.8833 91.4167 26.5583 91.9083 29.5542C90.8583 27.3208 88.5 26.7125 85.7458 28.3208Z" fill="white"/>
</svg>
