<svg width="100" height="100" viewBox="0 0 100 100" fill="none" xmlns="http://www.w3.org/2000/svg">
<g clip-path="url(#clip0_11_8592)">
<path d="M58.2625 46.1583H67.0917C67.2965 46.1584 67.493 46.0773 67.6382 45.9328C67.7834 45.7884 67.8656 45.5923 67.8667 45.3875V37.525C67.8667 37.3195 67.785 37.1223 67.6397 36.977C67.4943 36.8317 67.2972 36.75 67.0917 36.75H58.2625C58.0581 36.75 57.862 36.8312 57.7174 36.9758C57.5729 37.1203 57.4917 37.3164 57.4917 37.5208V45.3875C57.4917 45.8125 57.8375 46.1583 58.2625 46.1583ZM45.9542 23.5333H54.7792C54.9847 23.5333 55.1818 23.4517 55.3272 23.3064C55.4725 23.161 55.5542 22.9639 55.5542 22.7583V14.8917C55.5531 14.6869 55.4709 14.4908 55.3257 14.3464C55.1805 14.2019 54.984 14.1208 54.7792 14.1208H45.9542C45.7497 14.1208 45.5537 14.2021 45.4091 14.3466C45.2646 14.4912 45.1833 14.6872 45.1833 14.8917V22.7583C45.1833 23.1833 45.525 23.5333 45.9542 23.5333ZM45.9542 34.8458H54.7792C54.9844 34.8448 55.1809 34.7628 55.326 34.6176C55.4711 34.4725 55.5531 34.2761 55.5542 34.0708V26.2083C55.5531 26.0035 55.4709 25.8075 55.3257 25.663C55.1805 25.5186 54.984 25.4375 54.7792 25.4375H45.9542C45.7497 25.4375 45.5537 25.5187 45.4091 25.6633C45.2646 25.8078 45.1833 26.0039 45.1833 26.2083V34.0708C45.1833 34.4958 45.525 34.8417 45.9542 34.8458ZM33.7458 34.8458H42.5792C42.7833 34.8437 42.9783 34.761 43.1218 34.6159C43.2653 34.4708 43.3459 34.275 43.3458 34.0708V26.2083C43.3458 26.0039 43.2646 25.8078 43.1201 25.6633C42.9755 25.5187 42.7794 25.4375 42.575 25.4375H33.75C33.5456 25.4375 33.3495 25.5187 33.2049 25.6633C33.0604 25.8078 32.9792 26.0039 32.9792 26.2083V34.0708C32.9792 34.4958 33.325 34.8417 33.75 34.8458M21.4 34.8458H30.2292C30.434 34.8447 30.6301 34.7626 30.7745 34.6174C30.9189 34.4722 31 34.2757 31 34.0708V26.2083C31 26.0039 30.9188 25.8078 30.7742 25.6633C30.6297 25.5187 30.4336 25.4375 30.2292 25.4375H21.4C21.1952 25.4375 20.9987 25.5186 20.8535 25.663C20.7082 25.8075 20.6261 26.0035 20.625 26.2083V34.0708C20.625 34.4958 20.975 34.8417 21.4 34.8458ZM45.9542 46.1583H54.7792C54.984 46.1584 55.1805 46.0773 55.3257 45.9328C55.4709 45.7884 55.5531 45.5923 55.5542 45.3875V37.525C55.5542 37.3195 55.4725 37.1223 55.3272 36.977C55.1818 36.8317 54.9847 36.75 54.7792 36.75H45.9542C45.7497 36.75 45.5537 36.8312 45.4091 36.9758C45.2646 37.1203 45.1833 37.3164 45.1833 37.5208V45.3875C45.1833 45.8125 45.525 46.1583 45.9542 46.1583ZM33.7458 46.1583H42.5792C42.7829 46.1572 42.9779 46.0755 43.1215 45.9311C43.2652 45.7867 43.3458 45.5912 43.3458 45.3875V37.525C43.3464 37.4238 43.327 37.3234 43.2888 37.2297C43.2505 37.136 43.1942 37.0507 43.123 36.9787C43.0518 36.9068 42.9672 36.8495 42.8738 36.8103C42.7805 36.771 42.6804 36.7506 42.5792 36.75H33.7458C33.5421 36.7511 33.3471 36.8328 33.2035 36.9773C33.0598 37.1217 32.9792 37.3171 32.9792 37.5208V45.3875C32.9792 45.8125 33.325 46.1583 33.75 46.1583M21.4 46.1583H30.2292C30.4336 46.1583 30.6297 46.0771 30.7742 45.9326C30.9188 45.788 31 45.592 31 45.3875V37.525C31.0006 37.4238 30.9812 37.3234 30.9429 37.2297C30.9047 37.136 30.8484 37.0507 30.7772 36.9787C30.706 36.9068 30.6213 36.8495 30.528 36.8103C30.4347 36.771 30.3346 36.7506 30.2333 36.75H21.4C21.1945 36.75 20.9973 36.8317 20.852 36.977C20.7067 37.1223 20.625 37.3195 20.625 37.525V45.3875C20.625 45.8125 20.975 46.1583 21.4 46.1583ZM9.23334 46.1583H18.0667C18.2704 46.1572 18.4654 46.0755 18.609 45.9311C18.7527 45.7867 18.8333 45.5912 18.8333 45.3875V37.525C18.8339 37.4238 18.8145 37.3234 18.7763 37.2297C18.738 37.136 18.6817 37.0507 18.6105 36.9787C18.5393 36.9068 18.4547 36.8495 18.3613 36.8103C18.268 36.771 18.1679 36.7506 18.0667 36.75H9.23334C9.02963 36.7511 8.83463 36.8328 8.69097 36.9773C8.54731 37.1217 8.46667 37.3171 8.46668 37.5208V45.3875C8.46668 45.8125 8.80418 46.1583 9.23334 46.1583ZM99.0125 41.2084C98.7417 40.9959 96.2125 39.0833 90.8708 39.0833C89.4625 39.0875 88.0542 39.2083 86.6625 39.4458C85.6292 32.3625 79.775 28.9042 79.5125 28.7542L78.0792 27.925L77.1375 29.2875C75.9542 31.1125 75.0958 33.1292 74.5875 35.2458C73.6292 39.2875 74.2125 43.0875 76.2667 46.3333C73.7875 47.7167 69.8083 48.0542 69 48.0833H3.12918C2.30215 48.0844 1.50919 48.4129 0.923619 48.9969C0.338045 49.5809 0.00747954 50.373 0.00417657 51.2C-0.0729831 56.9702 0.904154 62.7059 2.88751 68.125C5.15834 74.075 8.53334 78.4584 12.9292 81.1417C17.8458 84.1542 25.8458 85.8792 34.9083 85.8792C39.0042 85.8917 43.0875 85.5208 47.1167 84.7708C52.7119 83.743 58.0958 81.7869 63.0458 78.9833C67.1292 76.6208 70.7958 73.6167 73.9208 70.0833C79.1375 64.175 82.2458 57.5958 84.5583 51.75H85.4792C91.1958 51.75 94.7083 49.4625 96.6458 47.5458C97.9333 46.325 98.9375 44.8375 99.5917 43.1875L100 41.9875L99.0125 41.2084Z" fill="white"/>
</g>
<defs>
<clipPath id="clip0_11_8592">
<rect width="100" height="100" fill="white"/>
</clipPath>
</defs>
</svg>
