<svg width="100" height="100" viewBox="0 0 100 100" fill="none" xmlns="http://www.w3.org/2000/svg">
<g clip-path="url(#clip0_11_8557)">
<path d="M71.6375 39.8125C66.3708 16.5625 53.9208 8.92083 52.5833 6C51.4167 4.35833 50.375 2.025 49.5208 0C49.3708 2.0625 49.2917 2.85417 47.3417 4.93333C44.3292 7.29167 28.85 20.275 27.5917 46.6833C26.4167 71.3167 45.3833 85.9958 47.9583 87.8667L48.25 88.075C48.7862 92.0406 49.2446 96.0164 49.625 100H51.6292C52.1042 95.7 52.8125 91.4333 53.7542 87.2083C55.4917 85.975 56.2708 85.2792 57.2958 84.3208C62.1498 79.8304 66.0074 74.3713 68.6192 68.2964C71.2311 62.2215 72.5389 55.6662 72.4583 49.0542C72.5 45.6625 72.0292 42.1292 71.6375 39.8125ZM49.4042 73.9583C49.4042 73.9583 49.4042 39.4125 50.55 39.4167C51.4375 39.4167 52.5917 83.9792 52.5917 83.9792C51.0042 83.7917 49.4042 76.6458 49.4042 73.9583Z" fill="white"/>
</g>
<defs>
<clipPath id="clip0_11_8557">
<rect width="100" height="100" fill="white"/>
</clipPath>
</defs>
</svg>
