<svg width="101" height="100" viewBox="0 0 101 100" fill="none" xmlns="http://www.w3.org/2000/svg">
<g clip-path="url(#clip0_11_8522)">
<path d="M50.4917 99.9999C49.1542 99.9999 47.8208 99.6499 46.65 98.9708L34.4167 91.7333C32.5917 90.7124 33.4833 90.3499 34.0833 90.1374C36.5208 89.2916 37.0125 89.0958 39.6167 87.6208C39.8875 87.4666 40.2458 87.5249 40.525 87.6916L49.925 93.2708C50.2667 93.4583 50.7458 93.4583 51.0583 93.2708L87.7042 72.1208C88.0458 71.9249 88.2625 71.5333 88.2625 71.1291V28.8374C88.2625 28.4249 88.0417 28.0374 87.6917 27.8291L51.0625 6.69578C50.725 6.49994 50.275 6.49994 49.9333 6.69578L13.3125 27.8333C12.9583 28.0374 12.7333 28.4374 12.7333 28.8374V71.1291C12.7333 71.5333 12.9583 71.9166 13.3125 72.1083L23.35 77.9083C28.7958 80.6333 32.1333 77.4249 32.1333 74.1999V32.4458C32.1333 31.8541 32.6083 31.3916 33.2 31.3916H37.8458C38.425 31.3916 38.9083 31.8583 38.9083 32.4458V74.1999C38.9083 81.4708 34.95 85.6374 28.0583 85.6374C25.9417 85.6374 24.2708 85.6374 19.6167 83.3416L10 77.8124C7.62501 76.4416 6.15834 73.8749 6.15834 71.1291V28.8374C6.15834 26.0916 7.62917 23.5249 10 22.1583L46.6458 0.983276C48.9667 -0.329224 52.0458 -0.329224 54.3458 0.983276L90.9875 22.1583C93.3625 23.5291 94.8375 26.0916 94.8375 28.8374V71.1291C94.8375 73.8749 93.3625 76.4333 90.9875 77.8124L54.3458 98.9708C53.1792 99.6499 51.85 99.9999 50.4917 99.9999ZM80.0792 58.3041C80.0792 50.3874 74.7292 48.2791 63.4667 46.7916C52.0875 45.2874 50.9292 44.5083 50.9292 41.8458C50.9292 39.6458 51.9083 36.7083 60.3375 36.7083C67.8667 36.7083 70.6417 38.3291 71.7833 43.4041C71.8833 43.8833 72.3208 44.2333 72.8125 44.2333H77.5667C77.8625 44.2333 78.1417 44.1041 78.3417 43.8958C78.5417 43.6708 78.65 43.3833 78.6208 43.0791C77.8833 34.3374 72.075 30.2624 60.3375 30.2624C49.8875 30.2624 43.6542 34.6708 43.6542 42.0666C43.6542 50.0874 49.8542 52.3041 59.8833 53.2958C71.8833 54.4708 72.8125 56.2249 72.8125 58.5833C72.8125 62.6791 69.525 64.4249 61.8042 64.4249C52.1083 64.4249 49.975 61.9916 49.2583 57.1666C49.175 56.6499 48.7333 56.2708 48.2042 56.2708H43.4667C42.8792 56.2708 42.4083 56.7374 42.4083 57.3249C42.4083 63.4999 45.7667 70.8583 61.8042 70.8583C73.4208 70.8624 80.0792 66.2916 80.0792 58.3041Z" fill="white"/>
</g>
<defs>
<clipPath id="clip0_11_8522">
<rect width="100" height="100" fill="white" transform="translate(0.5)"/>
</clipPath>
</defs>
</svg>
