<svg width="101" height="100" viewBox="0 0 101 100" fill="none" xmlns="http://www.w3.org/2000/svg">
<g clip-path="url(#clip0_11_8547)">
<path d="M59.7917 50.0166C59.7917 52.4869 58.8107 54.856 57.0643 56.603C55.318 58.3501 52.9494 59.3322 50.4792 59.3333C48.0082 59.3333 45.6385 58.3517 43.8913 56.6045C42.1441 54.8573 41.1625 52.4876 41.1625 50.0166C41.1625 47.5464 42.1435 45.1773 43.8898 43.4302C45.6361 41.6831 48.0048 40.7011 50.475 40.7C52.9459 40.7 55.3157 41.6815 57.0629 43.4288C58.8101 45.176 59.7917 47.5457 59.7917 50.0166ZM70.825 5.47498C65.2167 5.47498 57.8792 9.47498 50.4583 16.4C43.0417 9.51248 35.7 5.55831 30.0958 5.55831C28.3875 5.55831 26.8333 5.94581 25.4875 6.71664C19.7583 10.0208 18.475 20.3166 21.4333 33.2375C8.75 37.1541 0.5 43.4166 0.5 50.0166C0.5 56.6416 8.79167 62.9208 21.5125 66.8083C18.5792 79.7791 19.8875 90.0916 25.6292 93.3916C26.9625 94.1708 28.5042 94.5375 30.2208 94.5375C35.825 94.5375 43.1667 90.5375 50.5875 83.6041C58.0042 90.4958 65.3458 94.45 70.95 94.45C72.6583 94.45 74.2125 94.075 75.5583 93.3041C81.2833 90.0041 82.5708 79.7083 79.6125 66.7833C92.25 62.9 100.5 56.625 100.5 50.0166C100.5 43.3916 92.2083 37.1125 79.4875 33.2166C82.4208 20.2583 81.1125 9.93748 75.3708 6.63331C74.0458 5.86664 72.5083 5.47914 70.825 5.47498ZM70.8042 10.0166V10.0416C71.7417 10.0416 72.4958 10.225 73.1292 10.5708C75.9042 12.1625 77.1083 18.2166 76.1708 26.0041C75.9458 27.9208 75.5792 29.9416 75.1292 32.0041C71.1292 31.0208 66.7708 30.2666 62.1833 29.7791C59.4333 26.0083 56.5792 22.5833 53.7042 19.5833C60.3375 13.4166 66.5667 10.0333 70.8083 10.0208L70.8042 10.0166ZM30.0958 10.1C34.3125 10.1 40.5708 13.4666 47.2208 19.6C44.3625 22.6 41.5125 26.0041 38.8042 29.775C34.1917 30.2625 29.8292 31.0166 25.8333 32.0166C25.3667 29.975 25.0208 28 24.775 26.1C23.8167 18.3166 25 12.2666 27.75 10.6541C28.5417 10.2791 29.4167 10.1208 30.0958 10.1ZM50.4375 22.8083C52.3333 24.7583 54.2292 26.9416 56.1042 29.325C54.2708 29.2416 52.3958 29.1833 50.5 29.1833C48.5833 29.1833 46.6875 29.225 44.8333 29.325C46.6667 26.9416 48.5625 24.7625 50.4375 22.8083ZM50.5 33.75C53.5833 33.75 56.6542 33.8916 59.675 34.1375C61.3667 36.5625 63.0167 39.15 64.6042 41.8875C66.1542 44.5541 67.5625 47.2625 68.8458 49.9958C67.5625 52.725 66.1542 55.4541 64.625 58.1208C63.0417 60.8708 61.4042 63.4875 59.7083 65.9125C56.675 66.175 53.6 66.3208 50.5 66.3208C47.4167 66.3208 44.3458 66.175 41.325 65.9333C39.6333 63.5083 37.9833 60.9166 36.3958 58.1833C34.8458 55.5166 33.4375 52.8083 32.1542 50.075C33.4167 47.3375 34.8458 44.6041 36.375 41.9333C37.9583 39.1833 39.5958 36.575 41.2917 34.15C44.325 33.8833 47.4 33.7416 50.5 33.7416V33.75ZM35.3542 34.8083C34.3542 36.3791 33.3542 37.9875 32.4208 39.6416C31.4833 41.2666 30.6083 42.9 29.775 44.5333C28.6708 41.8 27.7333 39.075 26.9583 36.4208C29.625 35.7958 32.4375 35.2375 35.3542 34.8083ZM65.6042 34.8083C68.5 35.2375 71.2917 35.7666 73.9625 36.4208C73.2125 39.0541 72.275 41.7625 71.2125 44.475C70.3792 42.85 69.5042 41.2125 68.5458 39.5833C67.6083 37.95 66.6083 36.3583 65.6083 34.8083H65.6042ZM78.3667 37.6208C80.3833 38.2458 82.3 38.9416 84.0958 39.6958C91.3125 42.7791 95.9792 46.8125 95.9792 50.0125C95.9583 53.2125 91.2917 57.2625 84.075 60.325C82.325 61.075 80.4083 61.75 78.4292 62.3791C77.2625 58.3875 75.7375 54.2291 73.8458 49.9625C75.7208 45.725 77.2208 41.5875 78.3667 37.6125V37.6208ZM22.5542 37.6375C23.7125 41.6375 25.2417 45.7916 27.1375 50.0541C25.2625 54.2916 23.7542 58.4291 22.6125 62.4041C20.5958 61.7791 18.6792 61.0791 16.9042 60.3208C9.6875 57.25 5.02083 53.2125 5.02083 50.0125C5.02083 46.8125 9.6875 42.7541 16.9042 39.6958C18.6542 38.9458 20.5708 38.2708 22.5542 37.6375ZM71.2125 55.4708C72.3167 58.2083 73.2542 60.9375 74.0292 63.5875C71.3625 64.2416 68.5458 64.7958 65.6292 65.2125C66.6292 63.65 67.6292 62.0375 68.5667 60.3875C69.5042 58.7625 70.375 57.1041 71.2125 55.4708ZM29.775 55.5541C30.6083 57.1875 31.4833 58.8166 32.4417 60.45C33.4 62.075 34.3792 63.6666 35.3792 65.2125C32.4833 64.7875 29.6917 64.2541 27.0208 63.6041C27.7708 60.9791 28.7125 58.2625 29.7708 55.55L29.775 55.5541ZM75.1667 68C75.6333 70.0541 76 72.0333 76.225 73.9291C77.1833 81.7125 76 87.7625 73.25 89.3791C72.6375 89.7541 71.8417 89.9125 70.9042 89.9125C66.6875 89.9125 60.4292 86.55 53.7792 80.4125C56.6375 77.4125 59.4875 74.0125 62.1958 70.2458C66.8083 69.7541 71.1708 69 75.1667 68ZM25.875 68.0416C29.875 69.0166 34.2333 69.7708 38.8208 70.2583C41.5708 74.0291 44.425 77.4541 47.3 80.45C40.6542 86.6291 34.4167 90.0125 30.175 90.0125C29.2583 89.9916 28.4833 89.8041 27.8708 89.4625C25.0958 87.8791 23.8917 81.8208 24.8292 74.0333C25.0542 72.1166 25.425 70.1 25.875 68.0416ZM44.875 70.7083C46.7083 70.7916 48.5833 70.85 50.4792 70.85C52.3958 70.85 54.2917 70.8083 56.1458 70.7083C54.3125 73.0916 52.4167 75.2708 50.5417 77.2291C48.6458 75.2708 46.75 73.0916 44.875 70.7083Z" fill="white"/>
</g>
<defs>
<clipPath id="clip0_11_8547">
<rect width="100" height="100" fill="white" transform="translate(0.5)"/>
</clipPath>
</defs>
</svg>
