<svg width="31" height="30" viewBox="0 0 31 30" fill="none" xmlns="http://www.w3.org/2000/svg">
<path d="M16.4375 15.9375C16.4375 16.4553 16.0178 16.875 15.5 16.875C14.9822 16.875 14.5625 16.4553 14.5625 15.9375C14.5625 15.4197 14.9822 15 15.5 15C16.0178 15 16.4375 15.4197 16.4375 15.9375Z" fill="#0F172A"/>
<path d="M9.875 19.6875C10.3928 19.6875 10.8125 19.2678 10.8125 18.75C10.8125 18.2322 10.3928 17.8125 9.875 17.8125C9.35723 17.8125 8.9375 18.2322 8.9375 18.75C8.9375 19.2678 9.35723 19.6875 9.875 19.6875Z" fill="#0F172A"/>
<path d="M10.8125 21.5625C10.8125 22.0803 10.3928 22.5 9.875 22.5C9.35723 22.5 8.9375 22.0803 8.9375 21.5625C8.9375 21.0447 9.35723 20.625 9.875 20.625C10.3928 20.625 10.8125 21.0447 10.8125 21.5625Z" fill="#0F172A"/>
<path d="M12.6875 19.6875C13.2053 19.6875 13.625 19.2678 13.625 18.75C13.625 18.2322 13.2053 17.8125 12.6875 17.8125C12.1697 17.8125 11.75 18.2322 11.75 18.75C11.75 19.2678 12.1697 19.6875 12.6875 19.6875Z" fill="#0F172A"/>
<path d="M13.625 21.5625C13.625 22.0803 13.2053 22.5 12.6875 22.5C12.1697 22.5 11.75 22.0803 11.75 21.5625C11.75 21.0447 12.1697 20.625 12.6875 20.625C13.2053 20.625 13.625 21.0447 13.625 21.5625Z" fill="#0F172A"/>
<path d="M15.5 19.6875C16.0178 19.6875 16.4375 19.2678 16.4375 18.75C16.4375 18.2322 16.0178 17.8125 15.5 17.8125C14.9822 17.8125 14.5625 18.2322 14.5625 18.75C14.5625 19.2678 14.9822 19.6875 15.5 19.6875Z" fill="#0F172A"/>
<path d="M16.4375 21.5625C16.4375 22.0803 16.0178 22.5 15.5 22.5C14.9822 22.5 14.5625 22.0803 14.5625 21.5625C14.5625 21.0447 14.9822 20.625 15.5 20.625C16.0178 20.625 16.4375 21.0447 16.4375 21.5625Z" fill="#0F172A"/>
<path d="M18.3125 19.6875C18.8303 19.6875 19.25 19.2678 19.25 18.75C19.25 18.2322 18.8303 17.8125 18.3125 17.8125C17.7947 17.8125 17.375 18.2322 17.375 18.75C17.375 19.2678 17.7947 19.6875 18.3125 19.6875Z" fill="#0F172A"/>
<path d="M19.25 21.5625C19.25 22.0803 18.8303 22.5 18.3125 22.5C17.7947 22.5 17.375 22.0803 17.375 21.5625C17.375 21.0447 17.7947 20.625 18.3125 20.625C18.8303 20.625 19.25 21.0447 19.25 21.5625Z" fill="#0F172A"/>
<path d="M21.125 19.6875C21.6428 19.6875 22.0625 19.2678 22.0625 18.75C22.0625 18.2322 21.6428 17.8125 21.125 17.8125C20.6072 17.8125 20.1875 18.2322 20.1875 18.75C20.1875 19.2678 20.6072 19.6875 21.125 19.6875Z" fill="#0F172A"/>
<path d="M19.25 15.9375C19.25 16.4553 18.8303 16.875 18.3125 16.875C17.7947 16.875 17.375 16.4553 17.375 15.9375C17.375 15.4197 17.7947 15 18.3125 15C18.8303 15 19.25 15.4197 19.25 15.9375Z" fill="#0F172A"/>
<path d="M21.125 16.875C21.6428 16.875 22.0625 16.4553 22.0625 15.9375C22.0625 15.4197 21.6428 15 21.125 15C20.6072 15 20.1875 15.4197 20.1875 15.9375C20.1875 16.4553 20.6072 16.875 21.125 16.875Z" fill="#0F172A"/>
<path fill-rule="evenodd" clip-rule="evenodd" d="M8.9375 2.8125C9.45527 2.8125 9.875 3.23223 9.875 3.75V5.625H21.125V3.75C21.125 3.23223 21.5447 2.8125 22.0625 2.8125C22.5803 2.8125 23 3.23223 23 3.75V5.625H23.9375C26.0086 5.625 27.6875 7.30393 27.6875 9.375V23.4375C27.6875 25.5086 26.0086 27.1875 23.9375 27.1875H7.0625C4.99143 27.1875 3.3125 25.5086 3.3125 23.4375V9.375C3.3125 7.30393 4.99143 5.625 7.0625 5.625H8V3.75C8 3.23223 8.41973 2.8125 8.9375 2.8125ZM25.8125 14.0625C25.8125 13.027 24.973 12.1875 23.9375 12.1875H7.0625C6.02697 12.1875 5.1875 13.027 5.1875 14.0625V23.4375C5.1875 24.473 6.02697 25.3125 7.0625 25.3125H23.9375C24.973 25.3125 25.8125 24.473 25.8125 23.4375V14.0625Z" fill="#0F172A"/>
</svg>
